# xmcd CD database file
# Copyright (C) 1997 Ti Kan
# 
# Track frame offsets:
#     150
#     19442
#     32300
#     47377
#     62810
#     77952
#     92087
#     107112
#     125200
#     139965
# 
# Disc length: 2086 seconds
# 
# Revision: 1
# Processed by: cddbd v1.4b41PL1 Copyright (c) Steve Scherf et al.
# Submitted via: DiscPlay 4.0.4
# 
DISCID=8808240a
DTITLE=Various Artist - Country Dance Party
DYEAR=1900
DGENRE=
TTITLE0=Jo-El Sonnier - Tear Stained Letter
TTITLE1=Tanya Tucker - San Antonio Stroll
TTITLE2=Mickey Gilley - Doo-Wah Days
TTITLE3=Desert Rose Band - One Step Forward
TTITLE4=The Bellamy Brothers - Dancin' Cowboys
TTITLE5=George Jones and Johnny Paycheck - Kansas City
TTITLE6=T Graham Brown - Darlene
TTITLE7=Johnny Duncan - Slow Dancing
TTITLE8=Foster and Lloyd - What Do You Want From Me This Time
TTITLE9=Charlie Daniels - Drinkin' My Baby Goodbye
EXTD=
EXTT0=
EXTT1=
EXTT2=
EXTT3=
EXTT4=
EXTT5=
EXTT6=
EXTT7=
EXTT8=
EXTT9=
PLAYORDER=
